<?xml version="1.0" encoding="utf-8" standalone="no"?>
<!DOCTYPE svg PUBLIC "-//W3C//DTD SVG 1.1//EN"
  "http://www.w3.org/Graphics/SVG/1.1/DTD/svg11.dtd">
<svg height="454.251921pt" version="1.1" viewBox="0 0 785.481231 454.251921" width="785.481231pt" xmlns="http://www.w3.org/2000/svg" xmlns:xlink="http://www.w3.org/1999/xlink">
 <metadata>
  <rdf:RDF xmlns:cc="http://creativecommons.org/ns#" xmlns:dc="http://purl.org/dc/elements/1.1/" xmlns:rdf="http://www.w3.org/1999/02/22-rdf-syntax-ns#">
   <cc:Work>
    <dc:type rdf:resource="http://purl.org/dc/dcmitype/StillImage"/>
    <dc:date>2026-06-14T21:28:52.558583</dc:date>
    <dc:format>image/svg+xml</dc:format>
    <dc:creator>
     <cc:Agent>
      <dc:title>Matplotlib v3.4.2, https://matplotlib.org/</dc:title>
     </cc:Agent>
    </dc:creator>
   </cc:Work>
  </rdf:RDF>
 </metadata>
 <defs>
  <style type="text/css">*{stroke-linecap:butt;stroke-linejoin:round;}</style>
 </defs>
 <g id="figure_1">
  <g id="patch_1">
   <path d="M 0 454.251921 
L 785.481231 454.251921 
L 785.481231 0 
L 0 0 
z
" style="fill:#ffffff;"/>
  </g>
  <g id="axes_1">
   <g id="patch_2">
    <path d="M 48.885 416.695671 
L 599.551495 416.695671 
L 599.551495 23.077969 
L 48.885 23.077969 
z
" style="fill:#ffffff;"/>
   </g>
   <g id="matplotlib.axis_1">
    <g id="xtick_1">
     <g id="line2d_1">
      <path clip-path="url(#p44fb6e499b)" d="M 73.915295 416.695671 
L 73.915295 23.077969 
" style="fill:none;stroke:#b0b0b0;stroke-linecap:square;stroke-opacity:0.26;stroke-width:0.8;"/>
     </g>
     <g id="line2d_2">
      <defs>
       <path d="M 0 0 
L 0 3.5 
" id="m98c34e3527" style="stroke:#000000;stroke-width:0.8;"/>
      </defs>
      <g>
       <use style="stroke:#000000;stroke-width:0.8;" x="73.915295" xlink:href="#m98c34e3527" y="416.695671"/>
      </g>
     </g>
     <g id="text_1">
      <!-- 25K -->
      <g transform="translate(65.23803 430.534264)scale(0.09 -0.09)">
       <defs>
        <path d="M 1228 531 
L 3431 531 
L 3431 0 
L 469 0 
L 469 531 
Q 828 903 1448 1529 
Q 2069 2156 2228 2338 
Q 2531 2678 2651 2914 
Q 2772 3150 2772 3378 
Q 2772 3750 2511 3984 
Q 2250 4219 1831 4219 
Q 1534 4219 1204 4116 
Q 875 4013 500 3803 
L 500 4441 
Q 881 4594 1212 4672 
Q 1544 4750 1819 4750 
Q 2544 4750 2975 4387 
Q 3406 4025 3406 3419 
Q 3406 3131 3298 2873 
Q 3191 2616 2906 2266 
Q 2828 2175 2409 1742 
Q 1991 1309 1228 531 
z
" id="DejaVuSans-32" transform="scale(0.015625)"/>
        <path d="M 691 4666 
L 3169 4666 
L 3169 4134 
L 1269 4134 
L 1269 2991 
Q 1406 3038 1543 3061 
Q 1681 3084 1819 3084 
Q 2600 3084 3056 2656 
Q 3513 2228 3513 1497 
Q 3513 744 3044 326 
Q 2575 -91 1722 -91 
Q 1428 -91 1123 -41 
Q 819 9 494 109 
L 494 744 
Q 775 591 1075 516 
Q 1375 441 1709 441 
Q 2250 441 2565 725 
Q 2881 1009 2881 1497 
Q 2881 1984 2565 2268 
Q 2250 2553 1709 2553 
Q 1456 2553 1204 2497 
Q 953 2441 691 2322 
L 691 4666 
z
" id="DejaVuSans-35" transform="scale(0.015625)"/>
        <path d="M 628 4666 
L 1259 4666 
L 1259 2694 
L 3353 4666 
L 4166 4666 
L 1850 2491 
L 4331 0 
L 3500 0 
L 1259 2247 
L 1259 0 
L 628 0 
L 628 4666 
z
" id="DejaVuSans-4b" transform="scale(0.015625)"/>
       </defs>
       <use xlink:href="#DejaVuSans-32"/>
       <use x="63.623047" xlink:href="#DejaVuSans-35"/>
       <use x="127.246094" xlink:href="#DejaVuSans-4b"/>
      </g>
     </g>
    </g>
    <g id="xtick_2">
     <g id="line2d_3">
      <path clip-path="url(#p44fb6e499b)" d="M 174.036476 416.695671 
L 174.036476 23.077969 
" style="fill:none;stroke:#b0b0b0;stroke-linecap:square;stroke-opacity:0.26;stroke-width:0.8;"/>
     </g>
     <g id="line2d_4">
      <g>
       <use style="stroke:#000000;stroke-width:0.8;" x="174.036476" xlink:href="#m98c34e3527" y="416.695671"/>
      </g>
     </g>
     <g id="text_2">
      <!-- 60K -->
      <g transform="translate(165.35921 430.534264)scale(0.09 -0.09)">
       <defs>
        <path d="M 2113 2584 
Q 1688 2584 1439 2293 
Q 1191 2003 1191 1497 
Q 1191 994 1439 701 
Q 1688 409 2113 409 
Q 2538 409 2786 701 
Q 3034 994 3034 1497 
Q 3034 2003 2786 2293 
Q 2538 2584 2113 2584 
z
M 3366 4563 
L 3366 3988 
Q 3128 4100 2886 4159 
Q 2644 4219 2406 4219 
Q 1781 4219 1451 3797 
Q 1122 3375 1075 2522 
Q 1259 2794 1537 2939 
Q 1816 3084 2150 3084 
Q 2853 3084 3261 2657 
Q 3669 2231 3669 1497 
Q 3669 778 3244 343 
Q 2819 -91 2113 -91 
Q 1303 -91 875 529 
Q 447 1150 447 2328 
Q 447 3434 972 4092 
Q 1497 4750 2381 4750 
Q 2619 4750 2861 4703 
Q 3103 4656 3366 4563 
z
" id="DejaVuSans-36" transform="scale(0.015625)"/>
        <path d="M 2034 4250 
Q 1547 4250 1301 3770 
Q 1056 3291 1056 2328 
Q 1056 1369 1301 889 
Q 1547 409 2034 409 
Q 2525 409 2770 889 
Q 3016 1369 3016 2328 
Q 3016 3291 2770 3770 
Q 2525 4250 2034 4250 
z
M 2034 4750 
Q 2819 4750 3233 4129 
Q 3647 3509 3647 2328 
Q 3647 1150 3233 529 
Q 2819 -91 2034 -91 
Q 1250 -91 836 529 
Q 422 1150 422 2328 
Q 422 3509 836 4129 
Q 1250 4750 2034 4750 
z
" id="DejaVuSans-30" transform="scale(0.015625)"/>
       </defs>
       <use xlink:href="#DejaVuSans-36"/>
       <use x="63.623047" xlink:href="#DejaVuSans-30"/>
       <use x="127.246094" xlink:href="#DejaVuSans-4b"/>
      </g>
     </g>
    </g>
    <g id="xtick_3">
     <g id="line2d_5">
      <path clip-path="url(#p44fb6e499b)" d="M 274.157657 416.695671 
L 274.157657 23.077969 
" style="fill:none;stroke:#b0b0b0;stroke-linecap:square;stroke-opacity:0.26;stroke-width:0.8;"/>
     </g>
     <g id="line2d_6">
      <g>
       <use style="stroke:#000000;stroke-width:0.8;" x="274.157657" xlink:href="#m98c34e3527" y="416.695671"/>
      </g>
     </g>
     <g id="text_3">
      <!-- 100K -->
      <g transform="translate(262.617266 430.534264)scale(0.09 -0.09)">
       <defs>
        <path d="M 794 531 
L 1825 531 
L 1825 4091 
L 703 3866 
L 703 4441 
L 1819 4666 
L 2450 4666 
L 2450 531 
L 3481 531 
L 3481 0 
L 794 0 
L 794 531 
z
" id="DejaVuSans-31" transform="scale(0.015625)"/>
       </defs>
       <use xlink:href="#DejaVuSans-31"/>
       <use x="63.623047" xlink:href="#DejaVuSans-30"/>
       <use x="127.246094" xlink:href="#DejaVuSans-30"/>
       <use x="190.869141" xlink:href="#DejaVuSans-4b"/>
      </g>
     </g>
    </g>
    <g id="xtick_4">
     <g id="line2d_7">
      <path clip-path="url(#p44fb6e499b)" d="M 374.278838 416.695671 
L 374.278838 23.077969 
" style="fill:none;stroke:#b0b0b0;stroke-linecap:square;stroke-opacity:0.26;stroke-width:0.8;"/>
     </g>
     <g id="line2d_8">
      <g>
       <use style="stroke:#000000;stroke-width:0.8;" x="374.278838" xlink:href="#m98c34e3527" y="416.695671"/>
      </g>
     </g>
     <g id="text_4">
      <!-- 250K -->
      <g transform="translate(362.738447 430.534264)scale(0.09 -0.09)">
       <use xlink:href="#DejaVuSans-32"/>
       <use x="63.623047" xlink:href="#DejaVuSans-35"/>
       <use x="127.246094" xlink:href="#DejaVuSans-30"/>
       <use x="190.869141" xlink:href="#DejaVuSans-4b"/>
      </g>
     </g>
    </g>
    <g id="xtick_5">
     <g id="line2d_9">
      <path clip-path="url(#p44fb6e499b)" d="M 474.400019 416.695671 
L 474.400019 23.077969 
" style="fill:none;stroke:#b0b0b0;stroke-linecap:square;stroke-opacity:0.26;stroke-width:0.8;"/>
     </g>
     <g id="line2d_10">
      <g>
       <use style="stroke:#000000;stroke-width:0.8;" x="474.400019" xlink:href="#m98c34e3527" y="416.695671"/>
      </g>
     </g>
     <g id="text_5">
      <!-- 500K -->
      <g transform="translate(462.859628 430.534264)scale(0.09 -0.09)">
       <use xlink:href="#DejaVuSans-35"/>
       <use x="63.623047" xlink:href="#DejaVuSans-30"/>
       <use x="127.246094" xlink:href="#DejaVuSans-30"/>
       <use x="190.869141" xlink:href="#DejaVuSans-4b"/>
      </g>
     </g>
    </g>
    <g id="xtick_6">
     <g id="line2d_11">
      <path clip-path="url(#p44fb6e499b)" d="M 574.521199 416.695671 
L 574.521199 23.077969 
" style="fill:none;stroke:#b0b0b0;stroke-linecap:square;stroke-opacity:0.26;stroke-width:0.8;"/>
     </g>
     <g id="line2d_12">
      <g>
       <use style="stroke:#000000;stroke-width:0.8;" x="574.521199" xlink:href="#m98c34e3527" y="416.695671"/>
      </g>
     </g>
     <g id="text_6">
      <!-- 500K + larger validation set -->
      <g transform="translate(511.201981 430.534264)scale(0.09 -0.09)">
       <defs>
        <path id="DejaVuSans-20" transform="scale(0.015625)"/>
        <path d="M 2944 4013 
L 2944 2272 
L 4684 2272 
L 4684 1741 
L 2944 1741 
L 2944 0 
L 2419 0 
L 2419 1741 
L 678 1741 
L 678 2272 
L 2419 2272 
L 2419 4013 
L 2944 4013 
z
" id="DejaVuSans-2b" transform="scale(0.015625)"/>
        <path d="M 603 4863 
L 1178 4863 
L 1178 0 
L 603 0 
L 603 4863 
z
" id="DejaVuSans-6c" transform="scale(0.015625)"/>
        <path d="M 2194 1759 
Q 1497 1759 1228 1600 
Q 959 1441 959 1056 
Q 959 750 1161 570 
Q 1363 391 1709 391 
Q 2188 391 2477 730 
Q 2766 1069 2766 1631 
L 2766 1759 
L 2194 1759 
z
M 3341 1997 
L 3341 0 
L 2766 0 
L 2766 531 
Q 2569 213 2275 61 
Q 1981 -91 1556 -91 
Q 1019 -91 701 211 
Q 384 513 384 1019 
Q 384 1609 779 1909 
Q 1175 2209 1959 2209 
L 2766 2209 
L 2766 2266 
Q 2766 2663 2505 2880 
Q 2244 3097 1772 3097 
Q 1472 3097 1187 3025 
Q 903 2953 641 2809 
L 641 3341 
Q 956 3463 1253 3523 
Q 1550 3584 1831 3584 
Q 2591 3584 2966 3190 
Q 3341 2797 3341 1997 
z
" id="DejaVuSans-61" transform="scale(0.015625)"/>
        <path d="M 2631 2963 
Q 2534 3019 2420 3045 
Q 2306 3072 2169 3072 
Q 1681 3072 1420 2755 
Q 1159 2438 1159 1844 
L 1159 0 
L 581 0 
L 581 3500 
L 1159 3500 
L 1159 2956 
Q 1341 3275 1631 3429 
Q 1922 3584 2338 3584 
Q 2397 3584 2469 3576 
Q 2541 3569 2628 3553 
L 2631 2963 
z
" id="DejaVuSans-72" transform="scale(0.015625)"/>
        <path d="M 2906 1791 
Q 2906 2416 2648 2759 
Q 2391 3103 1925 3103 
Q 1463 3103 1205 2759 
Q 947 2416 947 1791 
Q 947 1169 1205 825 
Q 1463 481 1925 481 
Q 2391 481 2648 825 
Q 2906 1169 2906 1791 
z
M 3481 434 
Q 3481 -459 3084 -895 
Q 2688 -1331 1869 -1331 
Q 1566 -1331 1297 -1286 
Q 1028 -1241 775 -1147 
L 775 -588 
Q 1028 -725 1275 -790 
Q 1522 -856 1778 -856 
Q 2344 -856 2625 -561 
Q 2906 -266 2906 331 
L 2906 616 
Q 2728 306 2450 153 
Q 2172 0 1784 0 
Q 1141 0 747 490 
Q 353 981 353 1791 
Q 353 2603 747 3093 
Q 1141 3584 1784 3584 
Q 2172 3584 2450 3431 
Q 2728 3278 2906 2969 
L 2906 3500 
L 3481 3500 
L 3481 434 
z
" id="DejaVuSans-67" transform="scale(0.015625)"/>
        <path d="M 3597 1894 
L 3597 1613 
L 953 1613 
Q 991 1019 1311 708 
Q 1631 397 2203 397 
Q 2534 397 2845 478 
Q 3156 559 3463 722 
L 3463 178 
Q 3153 47 2828 -22 
Q 2503 -91 2169 -91 
Q 1331 -91 842 396 
Q 353 884 353 1716 
Q 353 2575 817 3079 
Q 1281 3584 2069 3584 
Q 2775 3584 3186 3129 
Q 3597 2675 3597 1894 
z
M 3022 2063 
Q 3016 2534 2758 2815 
Q 2500 3097 2075 3097 
Q 1594 3097 1305 2825 
Q 1016 2553 972 2059 
L 3022 2063 
z
" id="DejaVuSans-65" transform="scale(0.015625)"/>
        <path d="M 191 3500 
L 800 3500 
L 1894 563 
L 2988 3500 
L 3597 3500 
L 2284 0 
L 1503 0 
L 191 3500 
z
" id="DejaVuSans-76" transform="scale(0.015625)"/>
        <path d="M 603 3500 
L 1178 3500 
L 1178 0 
L 603 0 
L 603 3500 
z
M 603 4863 
L 1178 4863 
L 1178 4134 
L 603 4134 
L 603 4863 
z
" id="DejaVuSans-69" transform="scale(0.015625)"/>
        <path d="M 2906 2969 
L 2906 4863 
L 3481 4863 
L 3481 0 
L 2906 0 
L 2906 525 
Q 2725 213 2448 61 
Q 2172 -91 1784 -91 
Q 1150 -91 751 415 
Q 353 922 353 1747 
Q 353 2572 751 3078 
Q 1150 3584 1784 3584 
Q 2172 3584 2448 3432 
Q 2725 3281 2906 2969 
z
M 947 1747 
Q 947 1113 1208 752 
Q 1469 391 1925 391 
Q 2381 391 2643 752 
Q 2906 1113 2906 1747 
Q 2906 2381 2643 2742 
Q 2381 3103 1925 3103 
Q 1469 3103 1208 2742 
Q 947 2381 947 1747 
z
" id="DejaVuSans-64" transform="scale(0.015625)"/>
        <path d="M 1172 4494 
L 1172 3500 
L 2356 3500 
L 2356 3053 
L 1172 3053 
L 1172 1153 
Q 1172 725 1289 603 
Q 1406 481 1766 481 
L 2356 481 
L 2356 0 
L 1766 0 
Q 1100 0 847 248 
Q 594 497 594 1153 
L 594 3053 
L 172 3053 
L 172 3500 
L 594 3500 
L 594 4494 
L 1172 4494 
z
" id="DejaVuSans-74" transform="scale(0.015625)"/>
        <path d="M 1959 3097 
Q 1497 3097 1228 2736 
Q 959 2375 959 1747 
Q 959 1119 1226 758 
Q 1494 397 1959 397 
Q 2419 397 2687 759 
Q 2956 1122 2956 1747 
Q 2956 2369 2687 2733 
Q 2419 3097 1959 3097 
z
M 1959 3584 
Q 2709 3584 3137 3096 
Q 3566 2609 3566 1747 
Q 3566 888 3137 398 
Q 2709 -91 1959 -91 
Q 1206 -91 779 398 
Q 353 888 353 1747 
Q 353 2609 779 3096 
Q 1206 3584 1959 3584 
z
" id="DejaVuSans-6f" transform="scale(0.015625)"/>
        <path d="M 3513 2113 
L 3513 0 
L 2938 0 
L 2938 2094 
Q 2938 2591 2744 2837 
Q 2550 3084 2163 3084 
Q 1697 3084 1428 2787 
Q 1159 2491 1159 1978 
L 1159 0 
L 581 0 
L 581 3500 
L 1159 3500 
L 1159 2956 
Q 1366 3272 1645 3428 
Q 1925 3584 2291 3584 
Q 2894 3584 3203 3211 
Q 3513 2838 3513 2113 
z
" id="DejaVuSans-6e" transform="scale(0.015625)"/>
        <path d="M 2834 3397 
L 2834 2853 
Q 2591 2978 2328 3040 
Q 2066 3103 1784 3103 
Q 1356 3103 1142 2972 
Q 928 2841 928 2578 
Q 928 2378 1081 2264 
Q 1234 2150 1697 2047 
L 1894 2003 
Q 2506 1872 2764 1633 
Q 3022 1394 3022 966 
Q 3022 478 2636 193 
Q 2250 -91 1575 -91 
Q 1294 -91 989 -36 
Q 684 19 347 128 
L 347 722 
Q 666 556 975 473 
Q 1284 391 1588 391 
Q 1994 391 2212 530 
Q 2431 669 2431 922 
Q 2431 1156 2273 1281 
Q 2116 1406 1581 1522 
L 1381 1569 
Q 847 1681 609 1914 
Q 372 2147 372 2553 
Q 372 3047 722 3315 
Q 1072 3584 1716 3584 
Q 2034 3584 2315 3537 
Q 2597 3491 2834 3397 
z
" id="DejaVuSans-73" transform="scale(0.015625)"/>
       </defs>
       <use xlink:href="#DejaVuSans-35"/>
       <use x="63.623047" xlink:href="#DejaVuSans-30"/>
       <use x="127.246094" xlink:href="#DejaVuSans-30"/>
       <use x="190.869141" xlink:href="#DejaVuSans-4b"/>
       <use x="256.445312" xlink:href="#DejaVuSans-20"/>
       <use x="288.232422" xlink:href="#DejaVuSans-2b"/>
       <use x="372.021484" xlink:href="#DejaVuSans-20"/>
       <use x="403.808594" xlink:href="#DejaVuSans-6c"/>
       <use x="431.591797" xlink:href="#DejaVuSans-61"/>
       <use x="492.871094" xlink:href="#DejaVuSans-72"/>
       <use x="532.234375" xlink:href="#DejaVuSans-67"/>
       <use x="595.710938" xlink:href="#DejaVuSans-65"/>
       <use x="657.234375" xlink:href="#DejaVuSans-72"/>
       <use x="698.347656" xlink:href="#DejaVuSans-20"/>
       <use x="730.134766" xlink:href="#DejaVuSans-76"/>
       <use x="789.314453" xlink:href="#DejaVuSans-61"/>
       <use x="850.59375" xlink:href="#DejaVuSans-6c"/>
       <use x="878.376953" xlink:href="#DejaVuSans-69"/>
       <use x="906.160156" xlink:href="#DejaVuSans-64"/>
       <use x="969.636719" xlink:href="#DejaVuSans-61"/>
       <use x="1030.916016" xlink:href="#DejaVuSans-74"/>
       <use x="1070.125" xlink:href="#DejaVuSans-69"/>
       <use x="1097.908203" xlink:href="#DejaVuSans-6f"/>
       <use x="1159.089844" xlink:href="#DejaVuSans-6e"/>
       <use x="1222.46875" xlink:href="#DejaVuSans-20"/>
       <use x="1254.255859" xlink:href="#DejaVuSans-73"/>
       <use x="1306.355469" xlink:href="#DejaVuSans-65"/>
       <use x="1367.878906" xlink:href="#DejaVuSans-74"/>
      </g>
     </g>
    </g>
    <g id="text_7">
     <!-- Training data scale -->
     <g transform="translate(272.463247 444.764264)scale(0.11 -0.11)">
      <defs>
       <path d="M -19 4666 
L 3928 4666 
L 3928 4134 
L 2272 4134 
L 2272 0 
L 1638 0 
L 1638 4134 
L -19 4134 
L -19 4666 
z
" id="DejaVuSans-54" transform="scale(0.015625)"/>
       <path d="M 3122 3366 
L 3122 2828 
Q 2878 2963 2633 3030 
Q 2388 3097 2138 3097 
Q 1578 3097 1268 2742 
Q 959 2388 959 1747 
Q 959 1106 1268 751 
Q 1578 397 2138 397 
Q 2388 397 2633 464 
Q 2878 531 3122 666 
L 3122 134 
Q 2881 22 2623 -34 
Q 2366 -91 2075 -91 
Q 1284 -91 818 406 
Q 353 903 353 1747 
Q 353 2603 823 3093 
Q 1294 3584 2113 3584 
Q 2378 3584 2631 3529 
Q 2884 3475 3122 3366 
z
" id="DejaVuSans-63" transform="scale(0.015625)"/>
      </defs>
      <use xlink:href="#DejaVuSans-54"/>
      <use x="46.333984" xlink:href="#DejaVuSans-72"/>
      <use x="87.447266" xlink:href="#DejaVuSans-61"/>
      <use x="148.726562" xlink:href="#DejaVuSans-69"/>
      <use x="176.509766" xlink:href="#DejaVuSans-6e"/>
      <use x="239.888672" xlink:href="#DejaVuSans-69"/>
      <use x="267.671875" xlink:href="#DejaVuSans-6e"/>
      <use x="331.050781" xlink:href="#DejaVuSans-67"/>
      <use x="394.527344" xlink:href="#DejaVuSans-20"/>
      <use x="426.314453" xlink:href="#DejaVuSans-64"/>
      <use x="489.791016" xlink:href="#DejaVuSans-61"/>
      <use x="551.070312" xlink:href="#DejaVuSans-74"/>
      <use x="590.279297" xlink:href="#DejaVuSans-61"/>
      <use x="651.558594" xlink:href="#DejaVuSans-20"/>
      <use x="683.345703" xlink:href="#DejaVuSans-73"/>
      <use x="735.445312" xlink:href="#DejaVuSans-63"/>
      <use x="790.425781" xlink:href="#DejaVuSans-61"/>
      <use x="851.705078" xlink:href="#DejaVuSans-6c"/>
      <use x="879.488281" xlink:href="#DejaVuSans-65"/>
     </g>
    </g>
   </g>
   <g id="matplotlib.axis_2">
    <g id="ytick_1">
     <g id="line2d_13">
      <path clip-path="url(#p44fb6e499b)" d="M 48.885 341.912299 
L 599.551495 341.912299 
" style="fill:none;stroke:#b0b0b0;stroke-linecap:square;stroke-opacity:0.26;stroke-width:0.8;"/>
     </g>
     <g id="line2d_14">
      <defs>
       <path d="M 0 0 
L -3.5 0 
" id="m871340b55c" style="stroke:#000000;stroke-width:0.8;"/>
      </defs>
      <g>
       <use style="stroke:#000000;stroke-width:0.8;" x="48.885" xlink:href="#m871340b55c" y="341.912299"/>
      </g>
     </g>
     <g id="text_8">
      <!-- 0.02 -->
      <g transform="translate(21.845938 345.331596)scale(0.09 -0.09)">
       <defs>
        <path d="M 684 794 
L 1344 794 
L 1344 0 
L 684 0 
L 684 794 
z
" id="DejaVuSans-2e" transform="scale(0.015625)"/>
       </defs>
       <use xlink:href="#DejaVuSans-30"/>
       <use x="63.623047" xlink:href="#DejaVuSans-2e"/>
       <use x="95.410156" xlink:href="#DejaVuSans-30"/>
       <use x="159.033203" xlink:href="#DejaVuSans-32"/>
      </g>
     </g>
    </g>
    <g id="ytick_2">
     <g id="line2d_15">
      <path clip-path="url(#p44fb6e499b)" d="M 48.885 263.601595 
L 599.551495 263.601595 
" style="fill:none;stroke:#b0b0b0;stroke-linecap:square;stroke-opacity:0.26;stroke-width:0.8;"/>
     </g>
     <g id="line2d_16">
      <g>
       <use style="stroke:#000000;stroke-width:0.8;" x="48.885" xlink:href="#m871340b55c" y="263.601595"/>
      </g>
     </g>
     <g id="text_9">
      <!-- 0.04 -->
      <g transform="translate(21.845938 267.020892)scale(0.09 -0.09)">
       <defs>
        <path d="M 2419 4116 
L 825 1625 
L 2419 1625 
L 2419 4116 
z
M 2253 4666 
L 3047 4666 
L 3047 1625 
L 3713 1625 
L 3713 1100 
L 3047 1100 
L 3047 0 
L 2419 0 
L 2419 1100 
L 313 1100 
L 313 1709 
L 2253 4666 
z
" id="DejaVuSans-34" transform="scale(0.015625)"/>
       </defs>
       <use xlink:href="#DejaVuSans-30"/>
       <use x="63.623047" xlink:href="#DejaVuSans-2e"/>
       <use x="95.410156" xlink:href="#DejaVuSans-30"/>
       <use x="159.033203" xlink:href="#DejaVuSans-34"/>
      </g>
     </g>
    </g>
    <g id="ytick_3">
     <g id="line2d_17">
      <path clip-path="url(#p44fb6e499b)" d="M 48.885 185.290891 
L 599.551495 185.290891 
" style="fill:none;stroke:#b0b0b0;stroke-linecap:square;stroke-opacity:0.26;stroke-width:0.8;"/>
     </g>
     <g id="line2d_18">
      <g>
       <use style="stroke:#000000;stroke-width:0.8;" x="48.885" xlink:href="#m871340b55c" y="185.290891"/>
      </g>
     </g>
     <g id="text_10">
      <!-- 0.06 -->
      <g transform="translate(21.845938 188.710188)scale(0.09 -0.09)">
       <use xlink:href="#DejaVuSans-30"/>
       <use x="63.623047" xlink:href="#DejaVuSans-2e"/>
       <use x="95.410156" xlink:href="#DejaVuSans-30"/>
       <use x="159.033203" xlink:href="#DejaVuSans-36"/>
      </g>
     </g>
    </g>
    <g id="ytick_4">
     <g id="line2d_19">
      <path clip-path="url(#p44fb6e499b)" d="M 48.885 106.980187 
L 599.551495 106.980187 
" style="fill:none;stroke:#b0b0b0;stroke-linecap:square;stroke-opacity:0.26;stroke-width:0.8;"/>
     </g>
     <g id="line2d_20">
      <g>
       <use style="stroke:#000000;stroke-width:0.8;" x="48.885" xlink:href="#m871340b55c" y="106.980187"/>
      </g>
     </g>
     <g id="text_11">
      <!-- 0.08 -->
      <g transform="translate(21.845938 110.399483)scale(0.09 -0.09)">
       <defs>
        <path d="M 2034 2216 
Q 1584 2216 1326 1975 
Q 1069 1734 1069 1313 
Q 1069 891 1326 650 
Q 1584 409 2034 409 
Q 2484 409 2743 651 
Q 3003 894 3003 1313 
Q 3003 1734 2745 1975 
Q 2488 2216 2034 2216 
z
M 1403 2484 
Q 997 2584 770 2862 
Q 544 3141 544 3541 
Q 544 4100 942 4425 
Q 1341 4750 2034 4750 
Q 2731 4750 3128 4425 
Q 3525 4100 3525 3541 
Q 3525 3141 3298 2862 
Q 3072 2584 2669 2484 
Q 3125 2378 3379 2068 
Q 3634 1759 3634 1313 
Q 3634 634 3220 271 
Q 2806 -91 2034 -91 
Q 1263 -91 848 271 
Q 434 634 434 1313 
Q 434 1759 690 2068 
Q 947 2378 1403 2484 
z
M 1172 3481 
Q 1172 3119 1398 2916 
Q 1625 2713 2034 2713 
Q 2441 2713 2670 2916 
Q 2900 3119 2900 3481 
Q 2900 3844 2670 4047 
Q 2441 4250 2034 4250 
Q 1625 4250 1398 4047 
Q 1172 3844 1172 3481 
z
" id="DejaVuSans-38" transform="scale(0.015625)"/>
       </defs>
       <use xlink:href="#DejaVuSans-30"/>
       <use x="63.623047" xlink:href="#DejaVuSans-2e"/>
       <use x="95.410156" xlink:href="#DejaVuSans-30"/>
       <use x="159.033203" xlink:href="#DejaVuSans-38"/>
      </g>
     </g>
    </g>
    <g id="ytick_5">
     <g id="line2d_21">
      <path clip-path="url(#p44fb6e499b)" d="M 48.885 28.669482 
L 599.551495 28.669482 
" style="fill:none;stroke:#b0b0b0;stroke-linecap:square;stroke-opacity:0.26;stroke-width:0.8;"/>
     </g>
     <g id="line2d_22">
      <g>
       <use style="stroke:#000000;stroke-width:0.8;" x="48.885" xlink:href="#m871340b55c" y="28.669482"/>
      </g>
     </g>
     <g id="text_12">
      <!-- 0.10 -->
      <g transform="translate(21.845938 32.088779)scale(0.09 -0.09)">
       <use xlink:href="#DejaVuSans-30"/>
       <use x="63.623047" xlink:href="#DejaVuSans-2e"/>
       <use x="95.410156" xlink:href="#DejaVuSans-31"/>
       <use x="159.033203" xlink:href="#DejaVuSans-30"/>
      </g>
     </g>
    </g>
    <g id="text_13">
     <!-- Error metric (lower is better) -->
     <g transform="translate(15.558281 298.547992)rotate(-90)scale(0.11 -0.11)">
      <defs>
       <path d="M 628 4666 
L 3578 4666 
L 3578 4134 
L 1259 4134 
L 1259 2753 
L 3481 2753 
L 3481 2222 
L 1259 2222 
L 1259 531 
L 3634 531 
L 3634 0 
L 628 0 
L 628 4666 
z
" id="DejaVuSans-45" transform="scale(0.015625)"/>
       <path d="M 3328 2828 
Q 3544 3216 3844 3400 
Q 4144 3584 4550 3584 
Q 5097 3584 5394 3201 
Q 5691 2819 5691 2113 
L 5691 0 
L 5113 0 
L 5113 2094 
Q 5113 2597 4934 2840 
Q 4756 3084 4391 3084 
Q 3944 3084 3684 2787 
Q 3425 2491 3425 1978 
L 3425 0 
L 2847 0 
L 2847 2094 
Q 2847 2600 2669 2842 
Q 2491 3084 2119 3084 
Q 1678 3084 1418 2786 
Q 1159 2488 1159 1978 
L 1159 0 
L 581 0 
L 581 3500 
L 1159 3500 
L 1159 2956 
Q 1356 3278 1631 3431 
Q 1906 3584 2284 3584 
Q 2666 3584 2933 3390 
Q 3200 3197 3328 2828 
z
" id="DejaVuSans-6d" transform="scale(0.015625)"/>
       <path d="M 1984 4856 
Q 1566 4138 1362 3434 
Q 1159 2731 1159 2009 
Q 1159 1288 1364 580 
Q 1569 -128 1984 -844 
L 1484 -844 
Q 1016 -109 783 600 
Q 550 1309 550 2009 
Q 550 2706 781 3412 
Q 1013 4119 1484 4856 
L 1984 4856 
z
" id="DejaVuSans-28" transform="scale(0.015625)"/>
       <path d="M 269 3500 
L 844 3500 
L 1563 769 
L 2278 3500 
L 2956 3500 
L 3675 769 
L 4391 3500 
L 4966 3500 
L 4050 0 
L 3372 0 
L 2619 2869 
L 1863 0 
L 1184 0 
L 269 3500 
z
" id="DejaVuSans-77" transform="scale(0.015625)"/>
       <path d="M 3116 1747 
Q 3116 2381 2855 2742 
Q 2594 3103 2138 3103 
Q 1681 3103 1420 2742 
Q 1159 2381 1159 1747 
Q 1159 1113 1420 752 
Q 1681 391 2138 391 
Q 2594 391 2855 752 
Q 3116 1113 3116 1747 
z
M 1159 2969 
Q 1341 3281 1617 3432 
Q 1894 3584 2278 3584 
Q 2916 3584 3314 3078 
Q 3713 2572 3713 1747 
Q 3713 922 3314 415 
Q 2916 -91 2278 -91 
Q 1894 -91 1617 61 
Q 1341 213 1159 525 
L 1159 0 
L 581 0 
L 581 4863 
L 1159 4863 
L 1159 2969 
z
" id="DejaVuSans-62" transform="scale(0.015625)"/>
       <path d="M 513 4856 
L 1013 4856 
Q 1481 4119 1714 3412 
Q 1947 2706 1947 2009 
Q 1947 1309 1714 600 
Q 1481 -109 1013 -844 
L 513 -844 
Q 928 -128 1133 580 
Q 1338 1288 1338 2009 
Q 1338 2731 1133 3434 
Q 928 4138 513 4856 
z
" id="DejaVuSans-29" transform="scale(0.015625)"/>
      </defs>
      <use xlink:href="#DejaVuSans-45"/>
      <use x="63.183594" xlink:href="#DejaVuSans-72"/>
      <use x="102.546875" xlink:href="#DejaVuSans-72"/>
      <use x="141.410156" xlink:href="#DejaVuSans-6f"/>
      <use x="202.591797" xlink:href="#DejaVuSans-72"/>
      <use x="243.705078" xlink:href="#DejaVuSans-20"/>
      <use x="275.492188" xlink:href="#DejaVuSans-6d"/>
      <use x="372.904297" xlink:href="#DejaVuSans-65"/>
      <use x="434.427734" xlink:href="#DejaVuSans-74"/>
      <use x="473.636719" xlink:href="#DejaVuSans-72"/>
      <use x="514.75" xlink:href="#DejaVuSans-69"/>
      <use x="542.533203" xlink:href="#DejaVuSans-63"/>
      <use x="597.513672" xlink:href="#DejaVuSans-20"/>
      <use x="629.300781" xlink:href="#DejaVuSans-28"/>
      <use x="668.314453" xlink:href="#DejaVuSans-6c"/>
      <use x="696.097656" xlink:href="#DejaVuSans-6f"/>
      <use x="757.279297" xlink:href="#DejaVuSans-77"/>
      <use x="839.066406" xlink:href="#DejaVuSans-65"/>
      <use x="900.589844" xlink:href="#DejaVuSans-72"/>
      <use x="941.703125" xlink:href="#DejaVuSans-20"/>
      <use x="973.490234" xlink:href="#DejaVuSans-69"/>
      <use x="1001.273438" xlink:href="#DejaVuSans-73"/>
      <use x="1053.373047" xlink:href="#DejaVuSans-20"/>
      <use x="1085.160156" xlink:href="#DejaVuSans-62"/>
      <use x="1148.636719" xlink:href="#DejaVuSans-65"/>
      <use x="1210.160156" xlink:href="#DejaVuSans-74"/>
      <use x="1249.369141" xlink:href="#DejaVuSans-74"/>
      <use x="1288.578125" xlink:href="#DejaVuSans-65"/>
      <use x="1350.101562" xlink:href="#DejaVuSans-72"/>
      <use x="1391.214844" xlink:href="#DejaVuSans-29"/>
     </g>
    </g>
   </g>
   <g id="line2d_23">
    <path clip-path="url(#p44fb6e499b)" d="M 73.915295 200.627084 
L 174.036476 220.470532 
L 274.157657 275.741774 
L 374.278838 300.755314 
L 474.400019 317.693751 
L 574.521199 367.692729 
" style="fill:none;stroke:#1f77b4;stroke-linecap:square;stroke-width:2.3;"/>
    <defs>
     <path d="M 0 3.25 
C 0.86191 3.25 1.688635 2.907559 2.298097 2.298097 
C 2.907559 1.688635 3.25 0.86191 3.25 0 
C 3.25 -0.86191 2.907559 -1.688635 2.298097 -2.298097 
C 1.688635 -2.907559 0.86191 -3.25 0 -3.25 
C -0.86191 -3.25 -1.688635 -2.907559 -2.298097 -2.298097 
C -2.907559 -1.688635 -3.25 -0.86191 -3.25 0 
C -3.25 0.86191 -2.907559 1.688635 -2.298097 2.298097 
C -1.688635 2.907559 -0.86191 3.25 0 3.25 
z
" id="mc0cbea8cde" style="stroke:#1f77b4;"/>
    </defs>
    <g clip-path="url(#p44fb6e499b)">
     <use style="fill:#1f77b4;stroke:#1f77b4;" x="73.915295" xlink:href="#mc0cbea8cde" y="200.627084"/>
     <use style="fill:#1f77b4;stroke:#1f77b4;" x="174.036476" xlink:href="#mc0cbea8cde" y="220.470532"/>
     <use style="fill:#1f77b4;stroke:#1f77b4;" x="274.157657" xlink:href="#mc0cbea8cde" y="275.741774"/>
     <use style="fill:#1f77b4;stroke:#1f77b4;" x="374.278838" xlink:href="#mc0cbea8cde" y="300.755314"/>
     <use style="fill:#1f77b4;stroke:#1f77b4;" x="474.400019" xlink:href="#mc0cbea8cde" y="317.693751"/>
     <use style="fill:#1f77b4;stroke:#1f77b4;" x="574.521199" xlink:href="#mc0cbea8cde" y="367.692729"/>
    </g>
   </g>
   <g id="line2d_24">
    <path clip-path="url(#p44fb6e499b)" d="M 73.915295 312.836273 
L 174.036476 319.158972 
L 274.157657 347.798708 
L 374.278838 360.057914 
L 474.400019 366.512892 
L 574.521199 392.143831 
" style="fill:none;stroke:#d62728;stroke-linecap:square;stroke-width:2.3;"/>
    <defs>
     <path d="M -3.25 3.25 
L 3.25 3.25 
L 3.25 -3.25 
L -3.25 -3.25 
z
" id="m7690354a35" style="stroke:#d62728;stroke-linejoin:miter;"/>
    </defs>
    <g clip-path="url(#p44fb6e499b)">
     <use style="fill:#d62728;stroke:#d62728;stroke-linejoin:miter;" x="73.915295" xlink:href="#m7690354a35" y="312.836273"/>
     <use style="fill:#d62728;stroke:#d62728;stroke-linejoin:miter;" x="174.036476" xlink:href="#m7690354a35" y="319.158972"/>
     <use style="fill:#d62728;stroke:#d62728;stroke-linejoin:miter;" x="274.157657" xlink:href="#m7690354a35" y="347.798708"/>
     <use style="fill:#d62728;stroke:#d62728;stroke-linejoin:miter;" x="374.278838" xlink:href="#m7690354a35" y="360.057914"/>
     <use style="fill:#d62728;stroke:#d62728;stroke-linejoin:miter;" x="474.400019" xlink:href="#m7690354a35" y="366.512892"/>
     <use style="fill:#d62728;stroke:#d62728;stroke-linejoin:miter;" x="574.521199" xlink:href="#m7690354a35" y="392.143831"/>
    </g>
   </g>
   <g id="line2d_25">
    <path clip-path="url(#p44fb6e499b)" d="M 73.915295 339.955346 
L 174.036476 345.833489 
L 274.157657 365.651602 
L 374.278838 373.776168 
L 474.400019 378.879046 
L 574.521199 398.803957 
" style="fill:none;stroke:#2ca02c;stroke-linecap:square;stroke-width:2.3;"/>
    <defs>
     <path d="M 0 -3.25 
L -3.25 3.25 
L 3.25 3.25 
z
" id="mdf6e1523a8" style="stroke:#2ca02c;stroke-linejoin:miter;"/>
    </defs>
    <g clip-path="url(#p44fb6e499b)">
     <use style="fill:#2ca02c;stroke:#2ca02c;stroke-linejoin:miter;" x="73.915295" xlink:href="#mdf6e1523a8" y="339.955346"/>
     <use style="fill:#2ca02c;stroke:#2ca02c;stroke-linejoin:miter;" x="174.036476" xlink:href="#mdf6e1523a8" y="345.833489"/>
     <use style="fill:#2ca02c;stroke:#2ca02c;stroke-linejoin:miter;" x="274.157657" xlink:href="#mdf6e1523a8" y="365.651602"/>
     <use style="fill:#2ca02c;stroke:#2ca02c;stroke-linejoin:miter;" x="374.278838" xlink:href="#mdf6e1523a8" y="373.776168"/>
     <use style="fill:#2ca02c;stroke:#2ca02c;stroke-linejoin:miter;" x="474.400019" xlink:href="#mdf6e1523a8" y="378.879046"/>
     <use style="fill:#2ca02c;stroke:#2ca02c;stroke-linejoin:miter;" x="574.521199" xlink:href="#mdf6e1523a8" y="398.803957"/>
    </g>
   </g>
   <g id="line2d_26">
    <path clip-path="url(#p44fb6e499b)" d="M 73.915295 361.406728 
L 174.036476 365.076521 
L 274.157657 377.728772 
L 374.278838 382.283281 
L 474.400019 385.535218 
L 574.521199 396.684782 
" style="fill:none;stroke:#9467bd;stroke-linecap:square;stroke-width:2.3;"/>
    <defs>
     <path d="M -0 4.596194 
L 4.596194 0 
L 0 -4.596194 
L -4.596194 -0 
z
" id="m331d93c901" style="stroke:#9467bd;stroke-linejoin:miter;"/>
    </defs>
    <g clip-path="url(#p44fb6e499b)">
     <use style="fill:#9467bd;stroke:#9467bd;stroke-linejoin:miter;" x="73.915295" xlink:href="#m331d93c901" y="361.406728"/>
     <use style="fill:#9467bd;stroke:#9467bd;stroke-linejoin:miter;" x="174.036476" xlink:href="#m331d93c901" y="365.076521"/>
     <use style="fill:#9467bd;stroke:#9467bd;stroke-linejoin:miter;" x="274.157657" xlink:href="#m331d93c901" y="377.728772"/>
     <use style="fill:#9467bd;stroke:#9467bd;stroke-linejoin:miter;" x="374.278838" xlink:href="#m331d93c901" y="382.283281"/>
     <use style="fill:#9467bd;stroke:#9467bd;stroke-linejoin:miter;" x="474.400019" xlink:href="#m331d93c901" y="385.535218"/>
     <use style="fill:#9467bd;stroke:#9467bd;stroke-linejoin:miter;" x="574.521199" xlink:href="#m331d93c901" y="396.684782"/>
    </g>
   </g>
   <g id="line2d_27">
    <path clip-path="url(#p44fb6e499b)" d="M 73.915295 360.109681 
L 174.036476 367.720628 
L 274.157657 380.351324 
L 374.278838 386.092915 
L 474.400019 390.438335 
L 574.521199 395.820893 
" style="fill:none;stroke:#8c564b;stroke-linecap:square;stroke-width:2.3;"/>
    <defs>
     <path d="M -0 3.25 
L 3.25 -3.25 
L -3.25 -3.25 
z
" id="m2bd7a71540" style="stroke:#8c564b;stroke-linejoin:miter;"/>
    </defs>
    <g clip-path="url(#p44fb6e499b)">
     <use style="fill:#8c564b;stroke:#8c564b;stroke-linejoin:miter;" x="73.915295" xlink:href="#m2bd7a71540" y="360.109681"/>
     <use style="fill:#8c564b;stroke:#8c564b;stroke-linejoin:miter;" x="174.036476" xlink:href="#m2bd7a71540" y="367.720628"/>
     <use style="fill:#8c564b;stroke:#8c564b;stroke-linejoin:miter;" x="274.157657" xlink:href="#m2bd7a71540" y="380.351324"/>
     <use style="fill:#8c564b;stroke:#8c564b;stroke-linejoin:miter;" x="374.278838" xlink:href="#m2bd7a71540" y="386.092915"/>
     <use style="fill:#8c564b;stroke:#8c564b;stroke-linejoin:miter;" x="474.400019" xlink:href="#m2bd7a71540" y="390.438335"/>
     <use style="fill:#8c564b;stroke:#8c564b;stroke-linejoin:miter;" x="574.521199" xlink:href="#m2bd7a71540" y="395.820893"/>
    </g>
   </g>
   <g id="line2d_28">
    <path clip-path="url(#p44fb6e499b)" d="M 73.915295 40.969682 
L 174.036476 99.107563 
L 274.157657 174.571037 
L 374.278838 235.064099 
L 474.400019 259.955893 
L 574.521199 383.082358 
" style="fill:none;stroke:#ff7f0e;stroke-linecap:square;stroke-width:2.3;"/>
    <defs>
     <path d="M -1.083333 3.25 
L 1.083333 3.25 
L 1.083333 1.083333 
L 3.25 1.083333 
L 3.25 -1.083333 
L 1.083333 -1.083333 
L 1.083333 -3.25 
L -1.083333 -3.25 
L -1.083333 -1.083333 
L -3.25 -1.083333 
L -3.25 1.083333 
L -1.083333 1.083333 
z
" id="m1f2d433011" style="stroke:#ff7f0e;stroke-linejoin:miter;"/>
    </defs>
    <g clip-path="url(#p44fb6e499b)">
     <use style="fill:#ff7f0e;stroke:#ff7f0e;stroke-linejoin:miter;" x="73.915295" xlink:href="#m1f2d433011" y="40.969682"/>
     <use style="fill:#ff7f0e;stroke:#ff7f0e;stroke-linejoin:miter;" x="174.036476" xlink:href="#m1f2d433011" y="99.107563"/>
     <use style="fill:#ff7f0e;stroke:#ff7f0e;stroke-linejoin:miter;" x="274.157657" xlink:href="#m1f2d433011" y="174.571037"/>
     <use style="fill:#ff7f0e;stroke:#ff7f0e;stroke-linejoin:miter;" x="374.278838" xlink:href="#m1f2d433011" y="235.064099"/>
     <use style="fill:#ff7f0e;stroke:#ff7f0e;stroke-linejoin:miter;" x="474.400019" xlink:href="#m1f2d433011" y="259.955893"/>
     <use style="fill:#ff7f0e;stroke:#ff7f0e;stroke-linejoin:miter;" x="574.521199" xlink:href="#m1f2d433011" y="383.082358"/>
    </g>
   </g>
   <g id="patch_3">
    <path d="M 48.885 416.695671 
L 48.885 23.077969 
" style="fill:none;stroke:#000000;stroke-linecap:square;stroke-linejoin:miter;stroke-width:0.8;"/>
   </g>
   <g id="patch_4">
    <path d="M 48.885 416.695671 
L 599.551495 416.695671 
" style="fill:none;stroke:#000000;stroke-linecap:square;stroke-linejoin:miter;stroke-width:0.8;"/>
   </g>
   <g id="text_14">
    <!-- v12: same 500K training scale, larger held-out validation/blind/stress set -->
    <g style="fill:#474747;" transform="translate(54.391665 43.541213)scale(0.088 -0.088)">
     <defs>
      <path d="M 750 794 
L 1409 794 
L 1409 0 
L 750 0 
L 750 794 
z
M 750 3309 
L 1409 3309 
L 1409 2516 
L 750 2516 
L 750 3309 
z
" id="DejaVuSans-3a" transform="scale(0.015625)"/>
      <path d="M 750 794 
L 1409 794 
L 1409 256 
L 897 -744 
L 494 -744 
L 750 256 
L 750 794 
z
" id="DejaVuSans-2c" transform="scale(0.015625)"/>
      <path d="M 3513 2113 
L 3513 0 
L 2938 0 
L 2938 2094 
Q 2938 2591 2744 2837 
Q 2550 3084 2163 3084 
Q 1697 3084 1428 2787 
Q 1159 2491 1159 1978 
L 1159 0 
L 581 0 
L 581 4863 
L 1159 4863 
L 1159 2956 
Q 1366 3272 1645 3428 
Q 1925 3584 2291 3584 
Q 2894 3584 3203 3211 
Q 3513 2838 3513 2113 
z
" id="DejaVuSans-68" transform="scale(0.015625)"/>
      <path d="M 313 2009 
L 1997 2009 
L 1997 1497 
L 313 1497 
L 313 2009 
z
" id="DejaVuSans-2d" transform="scale(0.015625)"/>
      <path d="M 544 1381 
L 544 3500 
L 1119 3500 
L 1119 1403 
Q 1119 906 1312 657 
Q 1506 409 1894 409 
Q 2359 409 2629 706 
Q 2900 1003 2900 1516 
L 2900 3500 
L 3475 3500 
L 3475 0 
L 2900 0 
L 2900 538 
Q 2691 219 2414 64 
Q 2138 -91 1772 -91 
Q 1169 -91 856 284 
Q 544 659 544 1381 
z
M 1991 3584 
L 1991 3584 
z
" id="DejaVuSans-75" transform="scale(0.015625)"/>
      <path d="M 1625 4666 
L 2156 4666 
L 531 -594 
L 0 -594 
L 1625 4666 
z
" id="DejaVuSans-2f" transform="scale(0.015625)"/>
     </defs>
     <use xlink:href="#DejaVuSans-76"/>
     <use x="59.179688" xlink:href="#DejaVuSans-31"/>
     <use x="122.802734" xlink:href="#DejaVuSans-32"/>
     <use x="186.425781" xlink:href="#DejaVuSans-3a"/>
     <use x="220.117188" xlink:href="#DejaVuSans-20"/>
     <use x="251.904297" xlink:href="#DejaVuSans-73"/>
     <use x="304.003906" xlink:href="#DejaVuSans-61"/>
     <use x="365.283203" xlink:href="#DejaVuSans-6d"/>
     <use x="462.695312" xlink:href="#DejaVuSans-65"/>
     <use x="524.21875" xlink:href="#DejaVuSans-20"/>
     <use x="556.005859" xlink:href="#DejaVuSans-35"/>
     <use x="619.628906" xlink:href="#DejaVuSans-30"/>
     <use x="683.251953" xlink:href="#DejaVuSans-30"/>
     <use x="746.875" xlink:href="#DejaVuSans-4b"/>
     <use x="812.451172" xlink:href="#DejaVuSans-20"/>
     <use x="844.238281" xlink:href="#DejaVuSans-74"/>
     <use x="883.447266" xlink:href="#DejaVuSans-72"/>
     <use x="924.560547" xlink:href="#DejaVuSans-61"/>
     <use x="985.839844" xlink:href="#DejaVuSans-69"/>
     <use x="1013.623047" xlink:href="#DejaVuSans-6e"/>
     <use x="1077.001953" xlink:href="#DejaVuSans-69"/>
     <use x="1104.785156" xlink:href="#DejaVuSans-6e"/>
     <use x="1168.164062" xlink:href="#DejaVuSans-67"/>
     <use x="1231.640625" xlink:href="#DejaVuSans-20"/>
     <use x="1263.427734" xlink:href="#DejaVuSans-73"/>
     <use x="1315.527344" xlink:href="#DejaVuSans-63"/>
     <use x="1370.507812" xlink:href="#DejaVuSans-61"/>
     <use x="1431.787109" xlink:href="#DejaVuSans-6c"/>
     <use x="1459.570312" xlink:href="#DejaVuSans-65"/>
     <use x="1521.09375" xlink:href="#DejaVuSans-2c"/>
     <use x="1552.880859" xlink:href="#DejaVuSans-20"/>
     <use x="1584.667969" xlink:href="#DejaVuSans-6c"/>
     <use x="1612.451172" xlink:href="#DejaVuSans-61"/>
     <use x="1673.730469" xlink:href="#DejaVuSans-72"/>
     <use x="1713.09375" xlink:href="#DejaVuSans-67"/>
     <use x="1776.570312" xlink:href="#DejaVuSans-65"/>
     <use x="1838.09375" xlink:href="#DejaVuSans-72"/>
     <use x="1879.207031" xlink:href="#DejaVuSans-20"/>
     <use x="1910.994141" xlink:href="#DejaVuSans-68"/>
     <use x="1974.373047" xlink:href="#DejaVuSans-65"/>
     <use x="2035.896484" xlink:href="#DejaVuSans-6c"/>
     <use x="2063.679688" xlink:href="#DejaVuSans-64"/>
     <use x="2127.15625" xlink:href="#DejaVuSans-2d"/>
     <use x="2165.115234" xlink:href="#DejaVuSans-6f"/>
     <use x="2226.296875" xlink:href="#DejaVuSans-75"/>
     <use x="2289.675781" xlink:href="#DejaVuSans-74"/>
     <use x="2328.884766" xlink:href="#DejaVuSans-20"/>
     <use x="2360.671875" xlink:href="#DejaVuSans-76"/>
     <use x="2419.851562" xlink:href="#DejaVuSans-61"/>
     <use x="2481.130859" xlink:href="#DejaVuSans-6c"/>
     <use x="2508.914062" xlink:href="#DejaVuSans-69"/>
     <use x="2536.697266" xlink:href="#DejaVuSans-64"/>
     <use x="2600.173828" xlink:href="#DejaVuSans-61"/>
     <use x="2661.453125" xlink:href="#DejaVuSans-74"/>
     <use x="2700.662109" xlink:href="#DejaVuSans-69"/>
     <use x="2728.445312" xlink:href="#DejaVuSans-6f"/>
     <use x="2789.626953" xlink:href="#DejaVuSans-6e"/>
     <use x="2853.005859" xlink:href="#DejaVuSans-2f"/>
     <use x="2886.697266" xlink:href="#DejaVuSans-62"/>
     <use x="2950.173828" xlink:href="#DejaVuSans-6c"/>
     <use x="2977.957031" xlink:href="#DejaVuSans-69"/>
     <use x="3005.740234" xlink:href="#DejaVuSans-6e"/>
     <use x="3069.119141" xlink:href="#DejaVuSans-64"/>
     <use x="3132.595703" xlink:href="#DejaVuSans-2f"/>
     <use x="3166.287109" xlink:href="#DejaVuSans-73"/>
     <use x="3218.386719" xlink:href="#DejaVuSans-74"/>
     <use x="3257.595703" xlink:href="#DejaVuSans-72"/>
     <use x="3296.458984" xlink:href="#DejaVuSans-65"/>
     <use x="3357.982422" xlink:href="#DejaVuSans-73"/>
     <use x="3410.082031" xlink:href="#DejaVuSans-73"/>
     <use x="3462.181641" xlink:href="#DejaVuSans-20"/>
     <use x="3493.96875" xlink:href="#DejaVuSans-73"/>
     <use x="3546.068359" xlink:href="#DejaVuSans-65"/>
     <use x="3607.591797" xlink:href="#DejaVuSans-74"/>
    </g>
   </g>
   <g id="text_15">
    <!-- Regression performance improves with training data scale -->
    <g transform="translate(134.2852 17.077969)scale(0.13 -0.13)">
     <defs>
      <path d="M 2841 2188 
Q 3044 2119 3236 1894 
Q 3428 1669 3622 1275 
L 4263 0 
L 3584 0 
L 2988 1197 
Q 2756 1666 2539 1819 
Q 2322 1972 1947 1972 
L 1259 1972 
L 1259 0 
L 628 0 
L 628 4666 
L 2053 4666 
Q 2853 4666 3247 4331 
Q 3641 3997 3641 3322 
Q 3641 2881 3436 2590 
Q 3231 2300 2841 2188 
z
M 1259 4147 
L 1259 2491 
L 2053 2491 
Q 2509 2491 2742 2702 
Q 2975 2913 2975 3322 
Q 2975 3731 2742 3939 
Q 2509 4147 2053 4147 
L 1259 4147 
z
" id="DejaVuSans-52" transform="scale(0.015625)"/>
      <path d="M 1159 525 
L 1159 -1331 
L 581 -1331 
L 581 3500 
L 1159 3500 
L 1159 2969 
Q 1341 3281 1617 3432 
Q 1894 3584 2278 3584 
Q 2916 3584 3314 3078 
Q 3713 2572 3713 1747 
Q 3713 922 3314 415 
Q 2916 -91 2278 -91 
Q 1894 -91 1617 61 
Q 1341 213 1159 525 
z
M 3116 1747 
Q 3116 2381 2855 2742 
Q 2594 3103 2138 3103 
Q 1681 3103 1420 2742 
Q 1159 2381 1159 1747 
Q 1159 1113 1420 752 
Q 1681 391 2138 391 
Q 2594 391 2855 752 
Q 3116 1113 3116 1747 
z
" id="DejaVuSans-70" transform="scale(0.015625)"/>
      <path d="M 2375 4863 
L 2375 4384 
L 1825 4384 
Q 1516 4384 1395 4259 
Q 1275 4134 1275 3809 
L 1275 3500 
L 2222 3500 
L 2222 3053 
L 1275 3053 
L 1275 0 
L 697 0 
L 697 3053 
L 147 3053 
L 147 3500 
L 697 3500 
L 697 3744 
Q 697 4328 969 4595 
Q 1241 4863 1831 4863 
L 2375 4863 
z
" id="DejaVuSans-66" transform="scale(0.015625)"/>
     </defs>
     <use xlink:href="#DejaVuSans-52"/>
     <use x="64.982422" xlink:href="#DejaVuSans-65"/>
     <use x="126.505859" xlink:href="#DejaVuSans-67"/>
     <use x="189.982422" xlink:href="#DejaVuSans-72"/>
     <use x="228.845703" xlink:href="#DejaVuSans-65"/>
     <use x="290.369141" xlink:href="#DejaVuSans-73"/>
     <use x="342.46875" xlink:href="#DejaVuSans-73"/>
     <use x="394.568359" xlink:href="#DejaVuSans-69"/>
     <use x="422.351562" xlink:href="#DejaVuSans-6f"/>
     <use x="483.533203" xlink:href="#DejaVuSans-6e"/>
     <use x="546.912109" xlink:href="#DejaVuSans-20"/>
     <use x="578.699219" xlink:href="#DejaVuSans-70"/>
     <use x="642.175781" xlink:href="#DejaVuSans-65"/>
     <use x="703.699219" xlink:href="#DejaVuSans-72"/>
     <use x="744.8125" xlink:href="#DejaVuSans-66"/>
     <use x="780.017578" xlink:href="#DejaVuSans-6f"/>
     <use x="841.199219" xlink:href="#DejaVuSans-72"/>
     <use x="880.5625" xlink:href="#DejaVuSans-6d"/>
     <use x="977.974609" xlink:href="#DejaVuSans-61"/>
     <use x="1039.253906" xlink:href="#DejaVuSans-6e"/>
     <use x="1102.632812" xlink:href="#DejaVuSans-63"/>
     <use x="1157.613281" xlink:href="#DejaVuSans-65"/>
     <use x="1219.136719" xlink:href="#DejaVuSans-20"/>
     <use x="1250.923828" xlink:href="#DejaVuSans-69"/>
     <use x="1278.707031" xlink:href="#DejaVuSans-6d"/>
     <use x="1376.119141" xlink:href="#DejaVuSans-70"/>
     <use x="1439.595703" xlink:href="#DejaVuSans-72"/>
     <use x="1478.458984" xlink:href="#DejaVuSans-6f"/>
     <use x="1539.640625" xlink:href="#DejaVuSans-76"/>
     <use x="1598.820312" xlink:href="#DejaVuSans-65"/>
     <use x="1660.34375" xlink:href="#DejaVuSans-73"/>
     <use x="1712.443359" xlink:href="#DejaVuSans-20"/>
     <use x="1744.230469" xlink:href="#DejaVuSans-77"/>
     <use x="1826.017578" xlink:href="#DejaVuSans-69"/>
     <use x="1853.800781" xlink:href="#DejaVuSans-74"/>
     <use x="1893.009766" xlink:href="#DejaVuSans-68"/>
     <use x="1956.388672" xlink:href="#DejaVuSans-20"/>
     <use x="1988.175781" xlink:href="#DejaVuSans-74"/>
     <use x="2027.384766" xlink:href="#DejaVuSans-72"/>
     <use x="2068.498047" xlink:href="#DejaVuSans-61"/>
     <use x="2129.777344" xlink:href="#DejaVuSans-69"/>
     <use x="2157.560547" xlink:href="#DejaVuSans-6e"/>
     <use x="2220.939453" xlink:href="#DejaVuSans-69"/>
     <use x="2248.722656" xlink:href="#DejaVuSans-6e"/>
     <use x="2312.101562" xlink:href="#DejaVuSans-67"/>
     <use x="2375.578125" xlink:href="#DejaVuSans-20"/>
     <use x="2407.365234" xlink:href="#DejaVuSans-64"/>
     <use x="2470.841797" xlink:href="#DejaVuSans-61"/>
     <use x="2532.121094" xlink:href="#DejaVuSans-74"/>
     <use x="2571.330078" xlink:href="#DejaVuSans-61"/>
     <use x="2632.609375" xlink:href="#DejaVuSans-20"/>
     <use x="2664.396484" xlink:href="#DejaVuSans-73"/>
     <use x="2716.496094" xlink:href="#DejaVuSans-63"/>
     <use x="2771.476562" xlink:href="#DejaVuSans-61"/>
     <use x="2832.755859" xlink:href="#DejaVuSans-6c"/>
     <use x="2860.539062" xlink:href="#DejaVuSans-65"/>
    </g>
   </g>
   <g id="legend_1">
    <g id="patch_5">
     <path d="M 612.364825 267.95682 
L 776.481231 267.95682 
Q 778.281231 267.95682 778.281231 266.15682 
L 778.281231 173.61682 
Q 778.281231 171.81682 776.481231 171.81682 
L 612.364825 171.81682 
Q 610.564825 171.81682 610.564825 173.61682 
L 610.564825 266.15682 
Q 610.564825 267.95682 612.364825 267.95682 
z
" style="fill:#ffffff;opacity:0.8;stroke:#cccccc;stroke-linejoin:miter;"/>
    </g>
    <g id="text_16">
     <!-- Metric -->
     <g transform="translate(678.878496 183.015257)scale(0.1 -0.1)">
      <defs>
       <path d="M 628 4666 
L 1569 4666 
L 2759 1491 
L 3956 4666 
L 4897 4666 
L 4897 0 
L 4281 0 
L 4281 4097 
L 3078 897 
L 2444 897 
L 1241 4097 
L 1241 0 
L 628 0 
L 628 4666 
z
" id="DejaVuSans-4d" transform="scale(0.015625)"/>
      </defs>
      <use xlink:href="#DejaVuSans-4d"/>
      <use x="86.279297" xlink:href="#DejaVuSans-65"/>
      <use x="147.802734" xlink:href="#DejaVuSans-74"/>
      <use x="187.011719" xlink:href="#DejaVuSans-72"/>
      <use x="228.125" xlink:href="#DejaVuSans-69"/>
      <use x="255.908203" xlink:href="#DejaVuSans-63"/>
     </g>
    </g>
    <g id="line2d_29">
     <path d="M 614.164825 193.283538 
L 632.164825 193.283538 
" style="fill:none;stroke:#1f77b4;stroke-linecap:square;stroke-width:2.3;"/>
    </g>
    <g id="line2d_30">
     <g>
      <use style="fill:#1f77b4;stroke:#1f77b4;" x="623.164825" xlink:href="#mc0cbea8cde" y="193.283538"/>
     </g>
    </g>
    <g id="text_17">
     <!-- Weighted score -->
     <g transform="translate(639.364825 196.433538)scale(0.09 -0.09)">
      <defs>
       <path d="M 213 4666 
L 850 4666 
L 1831 722 
L 2809 4666 
L 3519 4666 
L 4500 722 
L 5478 4666 
L 6119 4666 
L 4947 0 
L 4153 0 
L 3169 4050 
L 2175 0 
L 1381 0 
L 213 4666 
z
" id="DejaVuSans-57" transform="scale(0.015625)"/>
      </defs>
      <use xlink:href="#DejaVuSans-57"/>
      <use x="93.001953" xlink:href="#DejaVuSans-65"/>
      <use x="154.525391" xlink:href="#DejaVuSans-69"/>
      <use x="182.308594" xlink:href="#DejaVuSans-67"/>
      <use x="245.785156" xlink:href="#DejaVuSans-68"/>
      <use x="309.164062" xlink:href="#DejaVuSans-74"/>
      <use x="348.373047" xlink:href="#DejaVuSans-65"/>
      <use x="409.896484" xlink:href="#DejaVuSans-64"/>
      <use x="473.373047" xlink:href="#DejaVuSans-20"/>
      <use x="505.160156" xlink:href="#DejaVuSans-73"/>
      <use x="557.259766" xlink:href="#DejaVuSans-63"/>
      <use x="612.240234" xlink:href="#DejaVuSans-6f"/>
      <use x="673.421875" xlink:href="#DejaVuSans-72"/>
      <use x="712.285156" xlink:href="#DejaVuSans-65"/>
     </g>
    </g>
    <g id="line2d_31">
     <path d="M 614.164825 206.493851 
L 632.164825 206.493851 
" style="fill:none;stroke:#d62728;stroke-linecap:square;stroke-width:2.3;"/>
    </g>
    <g id="line2d_32">
     <g>
      <use style="fill:#d62728;stroke:#d62728;stroke-linejoin:miter;" x="623.164825" xlink:href="#m7690354a35" y="206.493851"/>
     </g>
    </g>
    <g id="text_18">
     <!-- True-hard normalized MAE -->
     <g transform="translate(639.364825 209.643851)scale(0.09 -0.09)">
      <defs>
       <path d="M 353 3500 
L 3084 3500 
L 3084 2975 
L 922 459 
L 3084 459 
L 3084 0 
L 275 0 
L 275 525 
L 2438 3041 
L 353 3041 
L 353 3500 
z
" id="DejaVuSans-7a" transform="scale(0.015625)"/>
       <path d="M 2188 4044 
L 1331 1722 
L 3047 1722 
L 2188 4044 
z
M 1831 4666 
L 2547 4666 
L 4325 0 
L 3669 0 
L 3244 1197 
L 1141 1197 
L 716 0 
L 50 0 
L 1831 4666 
z
" id="DejaVuSans-41" transform="scale(0.015625)"/>
      </defs>
      <use xlink:href="#DejaVuSans-54"/>
      <use x="46.333984" xlink:href="#DejaVuSans-72"/>
      <use x="87.447266" xlink:href="#DejaVuSans-75"/>
      <use x="150.826172" xlink:href="#DejaVuSans-65"/>
      <use x="212.349609" xlink:href="#DejaVuSans-2d"/>
      <use x="248.433594" xlink:href="#DejaVuSans-68"/>
      <use x="311.8125" xlink:href="#DejaVuSans-61"/>
      <use x="373.091797" xlink:href="#DejaVuSans-72"/>
      <use x="412.455078" xlink:href="#DejaVuSans-64"/>
      <use x="475.931641" xlink:href="#DejaVuSans-20"/>
      <use x="507.71875" xlink:href="#DejaVuSans-6e"/>
      <use x="571.097656" xlink:href="#DejaVuSans-6f"/>
      <use x="632.279297" xlink:href="#DejaVuSans-72"/>
      <use x="671.642578" xlink:href="#DejaVuSans-6d"/>
      <use x="769.054688" xlink:href="#DejaVuSans-61"/>
      <use x="830.333984" xlink:href="#DejaVuSans-6c"/>
      <use x="858.117188" xlink:href="#DejaVuSans-69"/>
      <use x="885.900391" xlink:href="#DejaVuSans-7a"/>
      <use x="938.390625" xlink:href="#DejaVuSans-65"/>
      <use x="999.914062" xlink:href="#DejaVuSans-64"/>
      <use x="1063.390625" xlink:href="#DejaVuSans-20"/>
      <use x="1095.177734" xlink:href="#DejaVuSans-4d"/>
      <use x="1181.457031" xlink:href="#DejaVuSans-41"/>
      <use x="1249.865234" xlink:href="#DejaVuSans-45"/>
     </g>
    </g>
    <g id="line2d_33">
     <path d="M 614.164825 219.704163 
L 632.164825 219.704163 
" style="fill:none;stroke:#2ca02c;stroke-linecap:square;stroke-width:2.3;"/>
    </g>
    <g id="line2d_34">
     <g>
      <use style="fill:#2ca02c;stroke:#2ca02c;stroke-linejoin:miter;" x="623.164825" xlink:href="#mdf6e1523a8" y="219.704163"/>
     </g>
    </g>
    <g id="text_19">
     <!-- Overall normalized MAE -->
     <g transform="translate(639.364825 222.854163)scale(0.09 -0.09)">
      <defs>
       <path d="M 2522 4238 
Q 1834 4238 1429 3725 
Q 1025 3213 1025 2328 
Q 1025 1447 1429 934 
Q 1834 422 2522 422 
Q 3209 422 3611 934 
Q 4013 1447 4013 2328 
Q 4013 3213 3611 3725 
Q 3209 4238 2522 4238 
z
M 2522 4750 
Q 3503 4750 4090 4092 
Q 4678 3434 4678 2328 
Q 4678 1225 4090 567 
Q 3503 -91 2522 -91 
Q 1538 -91 948 565 
Q 359 1222 359 2328 
Q 359 3434 948 4092 
Q 1538 4750 2522 4750 
z
" id="DejaVuSans-4f" transform="scale(0.015625)"/>
      </defs>
      <use xlink:href="#DejaVuSans-4f"/>
      <use x="78.710938" xlink:href="#DejaVuSans-76"/>
      <use x="137.890625" xlink:href="#DejaVuSans-65"/>
      <use x="199.414062" xlink:href="#DejaVuSans-72"/>
      <use x="240.527344" xlink:href="#DejaVuSans-61"/>
      <use x="301.806641" xlink:href="#DejaVuSans-6c"/>
      <use x="329.589844" xlink:href="#DejaVuSans-6c"/>
      <use x="357.373047" xlink:href="#DejaVuSans-20"/>
      <use x="389.160156" xlink:href="#DejaVuSans-6e"/>
      <use x="452.539062" xlink:href="#DejaVuSans-6f"/>
      <use x="513.720703" xlink:href="#DejaVuSans-72"/>
      <use x="553.083984" xlink:href="#DejaVuSans-6d"/>
      <use x="650.496094" xlink:href="#DejaVuSans-61"/>
      <use x="711.775391" xlink:href="#DejaVuSans-6c"/>
      <use x="739.558594" xlink:href="#DejaVuSans-69"/>
      <use x="767.341797" xlink:href="#DejaVuSans-7a"/>
      <use x="819.832031" xlink:href="#DejaVuSans-65"/>
      <use x="881.355469" xlink:href="#DejaVuSans-64"/>
      <use x="944.832031" xlink:href="#DejaVuSans-20"/>
      <use x="976.619141" xlink:href="#DejaVuSans-4d"/>
      <use x="1062.898438" xlink:href="#DejaVuSans-41"/>
      <use x="1131.306641" xlink:href="#DejaVuSans-45"/>
     </g>
    </g>
    <g id="line2d_35">
     <path d="M 614.164825 232.914476 
L 632.164825 232.914476 
" style="fill:none;stroke:#9467bd;stroke-linecap:square;stroke-width:2.3;"/>
    </g>
    <g id="line2d_36">
     <g>
      <use style="fill:#9467bd;stroke:#9467bd;stroke-linejoin:miter;" x="623.164825" xlink:href="#m331d93c901" y="232.914476"/>
     </g>
    </g>
    <g id="text_20">
     <!-- Blind normalized MAE -->
     <g transform="translate(639.364825 236.064476)scale(0.09 -0.09)">
      <defs>
       <path d="M 1259 2228 
L 1259 519 
L 2272 519 
Q 2781 519 3026 730 
Q 3272 941 3272 1375 
Q 3272 1813 3026 2020 
Q 2781 2228 2272 2228 
L 1259 2228 
z
M 1259 4147 
L 1259 2741 
L 2194 2741 
Q 2656 2741 2882 2914 
Q 3109 3088 3109 3444 
Q 3109 3797 2882 3972 
Q 2656 4147 2194 4147 
L 1259 4147 
z
M 628 4666 
L 2241 4666 
Q 2963 4666 3353 4366 
Q 3744 4066 3744 3513 
Q 3744 3084 3544 2831 
Q 3344 2578 2956 2516 
Q 3422 2416 3680 2098 
Q 3938 1781 3938 1306 
Q 3938 681 3513 340 
Q 3088 0 2303 0 
L 628 0 
L 628 4666 
z
" id="DejaVuSans-42" transform="scale(0.015625)"/>
      </defs>
      <use xlink:href="#DejaVuSans-42"/>
      <use x="68.603516" xlink:href="#DejaVuSans-6c"/>
      <use x="96.386719" xlink:href="#DejaVuSans-69"/>
      <use x="124.169922" xlink:href="#DejaVuSans-6e"/>
      <use x="187.548828" xlink:href="#DejaVuSans-64"/>
      <use x="251.025391" xlink:href="#DejaVuSans-20"/>
      <use x="282.8125" xlink:href="#DejaVuSans-6e"/>
      <use x="346.191406" xlink:href="#DejaVuSans-6f"/>
      <use x="407.373047" xlink:href="#DejaVuSans-72"/>
      <use x="446.736328" xlink:href="#DejaVuSans-6d"/>
      <use x="544.148438" xlink:href="#DejaVuSans-61"/>
      <use x="605.427734" xlink:href="#DejaVuSans-6c"/>
      <use x="633.210938" xlink:href="#DejaVuSans-69"/>
      <use x="660.994141" xlink:href="#DejaVuSans-7a"/>
      <use x="713.484375" xlink:href="#DejaVuSans-65"/>
      <use x="775.007812" xlink:href="#DejaVuSans-64"/>
      <use x="838.484375" xlink:href="#DejaVuSans-20"/>
      <use x="870.271484" xlink:href="#DejaVuSans-4d"/>
      <use x="956.550781" xlink:href="#DejaVuSans-41"/>
      <use x="1024.958984" xlink:href="#DejaVuSans-45"/>
     </g>
    </g>
    <g id="line2d_37">
     <path d="M 614.164825 246.124788 
L 632.164825 246.124788 
" style="fill:none;stroke:#8c564b;stroke-linecap:square;stroke-width:2.3;"/>
    </g>
    <g id="line2d_38">
     <g>
      <use style="fill:#8c564b;stroke:#8c564b;stroke-linejoin:miter;" x="623.164825" xlink:href="#m2bd7a71540" y="246.124788"/>
     </g>
    </g>
    <g id="text_21">
     <!-- Stress normalized MAE -->
     <g transform="translate(639.364825 249.274788)scale(0.09 -0.09)">
      <defs>
       <path d="M 3425 4513 
L 3425 3897 
Q 3066 4069 2747 4153 
Q 2428 4238 2131 4238 
Q 1616 4238 1336 4038 
Q 1056 3838 1056 3469 
Q 1056 3159 1242 3001 
Q 1428 2844 1947 2747 
L 2328 2669 
Q 3034 2534 3370 2195 
Q 3706 1856 3706 1288 
Q 3706 609 3251 259 
Q 2797 -91 1919 -91 
Q 1588 -91 1214 -16 
Q 841 59 441 206 
L 441 856 
Q 825 641 1194 531 
Q 1563 422 1919 422 
Q 2459 422 2753 634 
Q 3047 847 3047 1241 
Q 3047 1584 2836 1778 
Q 2625 1972 2144 2069 
L 1759 2144 
Q 1053 2284 737 2584 
Q 422 2884 422 3419 
Q 422 4038 858 4394 
Q 1294 4750 2059 4750 
Q 2388 4750 2728 4690 
Q 3069 4631 3425 4513 
z
" id="DejaVuSans-53" transform="scale(0.015625)"/>
      </defs>
      <use xlink:href="#DejaVuSans-53"/>
      <use x="63.476562" xlink:href="#DejaVuSans-74"/>
      <use x="102.685547" xlink:href="#DejaVuSans-72"/>
      <use x="141.548828" xlink:href="#DejaVuSans-65"/>
      <use x="203.072266" xlink:href="#DejaVuSans-73"/>
      <use x="255.171875" xlink:href="#DejaVuSans-73"/>
      <use x="307.271484" xlink:href="#DejaVuSans-20"/>
      <use x="339.058594" xlink:href="#DejaVuSans-6e"/>
      <use x="402.4375" xlink:href="#DejaVuSans-6f"/>
      <use x="463.619141" xlink:href="#DejaVuSans-72"/>
      <use x="502.982422" xlink:href="#DejaVuSans-6d"/>
      <use x="600.394531" xlink:href="#DejaVuSans-61"/>
      <use x="661.673828" xlink:href="#DejaVuSans-6c"/>
      <use x="689.457031" xlink:href="#DejaVuSans-69"/>
      <use x="717.240234" xlink:href="#DejaVuSans-7a"/>
      <use x="769.730469" xlink:href="#DejaVuSans-65"/>
      <use x="831.253906" xlink:href="#DejaVuSans-64"/>
      <use x="894.730469" xlink:href="#DejaVuSans-20"/>
      <use x="926.517578" xlink:href="#DejaVuSans-4d"/>
      <use x="1012.796875" xlink:href="#DejaVuSans-41"/>
      <use x="1081.205078" xlink:href="#DejaVuSans-45"/>
     </g>
    </g>
    <g id="line2d_39">
     <path d="M 614.164825 259.335101 
L 632.164825 259.335101 
" style="fill:none;stroke:#ff7f0e;stroke-linecap:square;stroke-width:2.3;"/>
    </g>
    <g id="line2d_40">
     <g>
      <use style="fill:#ff7f0e;stroke:#ff7f0e;stroke-linejoin:miter;" x="623.164825" xlink:href="#m1f2d433011" y="259.335101"/>
     </g>
    </g>
    <g id="text_22">
     <!-- High-S3 magnitude MAE / 100 -->
     <g transform="translate(639.364825 262.485101)scale(0.09 -0.09)">
      <defs>
       <path d="M 628 4666 
L 1259 4666 
L 1259 2753 
L 3553 2753 
L 3553 4666 
L 4184 4666 
L 4184 0 
L 3553 0 
L 3553 2222 
L 1259 2222 
L 1259 0 
L 628 0 
L 628 4666 
z
" id="DejaVuSans-48" transform="scale(0.015625)"/>
       <path d="M 2597 2516 
Q 3050 2419 3304 2112 
Q 3559 1806 3559 1356 
Q 3559 666 3084 287 
Q 2609 -91 1734 -91 
Q 1441 -91 1130 -33 
Q 819 25 488 141 
L 488 750 
Q 750 597 1062 519 
Q 1375 441 1716 441 
Q 2309 441 2620 675 
Q 2931 909 2931 1356 
Q 2931 1769 2642 2001 
Q 2353 2234 1838 2234 
L 1294 2234 
L 1294 2753 
L 1863 2753 
Q 2328 2753 2575 2939 
Q 2822 3125 2822 3475 
Q 2822 3834 2567 4026 
Q 2313 4219 1838 4219 
Q 1578 4219 1281 4162 
Q 984 4106 628 3988 
L 628 4550 
Q 988 4650 1302 4700 
Q 1616 4750 1894 4750 
Q 2613 4750 3031 4423 
Q 3450 4097 3450 3541 
Q 3450 3153 3228 2886 
Q 3006 2619 2597 2516 
z
" id="DejaVuSans-33" transform="scale(0.015625)"/>
      </defs>
      <use xlink:href="#DejaVuSans-48"/>
      <use x="75.195312" xlink:href="#DejaVuSans-69"/>
      <use x="102.978516" xlink:href="#DejaVuSans-67"/>
      <use x="166.455078" xlink:href="#DejaVuSans-68"/>
      <use x="229.833984" xlink:href="#DejaVuSans-2d"/>
      <use x="265.917969" xlink:href="#DejaVuSans-53"/>
      <use x="329.394531" xlink:href="#DejaVuSans-33"/>
      <use x="393.017578" xlink:href="#DejaVuSans-20"/>
      <use x="424.804688" xlink:href="#DejaVuSans-6d"/>
      <use x="522.216797" xlink:href="#DejaVuSans-61"/>
      <use x="583.496094" xlink:href="#DejaVuSans-67"/>
      <use x="646.972656" xlink:href="#DejaVuSans-6e"/>
      <use x="710.351562" xlink:href="#DejaVuSans-69"/>
      <use x="738.134766" xlink:href="#DejaVuSans-74"/>
      <use x="777.34375" xlink:href="#DejaVuSans-75"/>
      <use x="840.722656" xlink:href="#DejaVuSans-64"/>
      <use x="904.199219" xlink:href="#DejaVuSans-65"/>
      <use x="965.722656" xlink:href="#DejaVuSans-20"/>
      <use x="997.509766" xlink:href="#DejaVuSans-4d"/>
      <use x="1083.789062" xlink:href="#DejaVuSans-41"/>
      <use x="1152.197266" xlink:href="#DejaVuSans-45"/>
      <use x="1215.380859" xlink:href="#DejaVuSans-20"/>
      <use x="1247.167969" xlink:href="#DejaVuSans-2f"/>
      <use x="1280.859375" xlink:href="#DejaVuSans-20"/>
      <use x="1312.646484" xlink:href="#DejaVuSans-31"/>
      <use x="1376.269531" xlink:href="#DejaVuSans-30"/>
      <use x="1439.892578" xlink:href="#DejaVuSans-30"/>
     </g>
    </g>
   </g>
  </g>
 </g>
 <defs>
  <clipPath id="p44fb6e499b">
   <rect height="393.617702" width="550.666495" x="48.885" y="23.077969"/>
  </clipPath>
 </defs>
</svg>
